<svg xmlns="http://www.w3.org/2000/svg" id="b" viewBox="0 0 88.7 81.4"><g id="c"><path d="m88.7,0c0,1.5-.2,3.1-.2,4.6,0,24.1,0,48.3,0,72.4,0,4.3,0,4.3-4.4,4.3-26.4,0-52.9,0-79.3,0-4.5,0-4.5,0-4.5-4.7,0-24,0-48.1,0-72.1,0-1.5-.1-3.1-.2-4.6,29.6,0,59.1,0,88.7,0Z" fill="#fd8302" stroke-width="0"></path><path d="m16,34.1c5.9,0,11.9-.1,17.8,0,2.6,0,3.7-.8,4.4-3.2,1.4-4.8,3-9.4,4.6-14.1.3-1,.8-1.9,1.9-2.9.6,1.7,1.3,3.4,1.8,5.1,1.4,4.2,2.8,8.4,4.1,12.6.6,1.9,1.6,2.6,3.6,2.6,5.1-.1,10.1,0,15.2,0,1,0,2.1.1,4.1.2-1.5,1.3-2.3,2.1-3.2,2.8-3.8,2.8-7.6,5.7-11.5,8.3-2.2,1.4-2.8,2.8-1.8,5.4,1.8,4.6,3.1,9.4,4.6,14.1.3,1,.5,2,.2,3.6-1.1-.8-2.3-1.5-3.3-2.3-3.9-2.8-7.9-5.6-11.7-8.6-1.7-1.3-3-1.3-4.7,0-3.9,3-8,5.9-12,8.8-.9.7-2,1.3-3.8,2.5.5-2.1.7-3.2,1-4.3,1.5-4.7,2.9-9.5,4.7-14.1.9-2.3.3-3.6-1.7-4.9-4.1-2.8-8.1-5.8-12.1-8.7-.8-.6-1.6-1.3-2.5-2,.1-.3.2-.6.3-.9Z" fill="#fff" stroke-width="0"></path></g></svg>